<?xml version="1.0" standalone="no"?><!DOCTYPE svg PUBLIC "-//W3C//DTD SVG 1.1//EN" "http://www.w3.org/Graphics/SVG/1.1/DTD/svg11.dtd"><svg t="1600791775088" class="icon" viewBox="0 0 1024 1024" version="1.1" xmlns="http://www.w3.org/2000/svg" p-id="2981" xmlns:xlink="http://www.w3.org/1999/xlink" width="200" height="200"><defs><style type="text/css"></style></defs><path d="M512 0c282.766222 0 512 229.233778 512 512s-229.233778 512-512 512S0 794.766222 0 512 229.233778 0 512 0z m223.288889 284.444444h-144.924445c-29.297778 0-55.182222 18.773333-70.712888 47.729778-10.353778-20.48-27.591111-35.811556-48.298667-42.609778-2.304 0-4.608-0.768-6.912-1.28l-3.441778-0.426666h-1.706667l-32.796444-1.706667h-122.481778c-7.68 0-12.600889 5.404444-13.596444 11.377778l-0.199111 2.275555v392.021334c0 7.566222 5.461333 12.458667 11.52 13.454222l2.275555 0.170667h146.631111c24.177778 0 43.121778 10.24 58.652445 29.013333 1.28 1.251556 2.588444 2.56 4.608 3.811556l2.275555 1.28h3.470223c3.441778 0 8.618667-3.413333 10.353777-6.826667 14.336-18.858667 31.573333-29.013333 54.528-30.492445l5.831111-0.170666h144.896c7.68 0 12.600889-5.404444 13.624889-11.377778l0.170667-2.275556V298.097778a13.397333 13.397333 0 0 0-11.491556-13.425778L735.288889 284.444444zM430.023111 568.888889l2.218667 0.199111a13.710222 13.710222 0 0 1 11.235555 14.023111 13.710222 13.710222 0 0 1-11.235555 14.023111L430.08 597.333333h-84.110222l-2.218667-0.199111a13.710222 13.710222 0 0 1-11.235555-14.023111c0-7.907556 3.982222-12.999111 10.780444-14.023111l2.673778-0.199111h84.110222z m251.619556 0l2.218666 0.199111a13.710222 13.710222 0 0 1 11.235556 14.023111 13.710222 13.710222 0 0 1-11.235556 14.023111l-2.218666 0.199111h-84.110223l-2.218666-0.199111a13.710222 13.710222 0 0 1-11.235556-14.023111c0-7.907556 3.982222-12.999111 10.808889-14.023111l2.645333-0.199111h84.110223z m-251.619556-56.888889l2.218667 0.199111a13.710222 13.710222 0 0 1 11.235555 14.023111 13.710222 13.710222 0 0 1-11.235555 14.023111L430.08 540.444444h-84.110222l-2.218667-0.199111a13.710222 13.710222 0 0 1-11.235555-14.023111c0-7.907556 3.982222-12.999111 10.780444-14.023111l2.673778-0.199111h84.110222z m251.619556 0l2.218666 0.199111a13.710222 13.710222 0 0 1 11.235556 14.023111 13.710222 13.710222 0 0 1-11.235556 14.023111l-2.218666 0.199111h-84.110223l-2.218666-0.199111a13.710222 13.710222 0 0 1-11.235556-14.023111c0-7.907556 3.982222-12.999111 10.808889-14.023111l2.645333-0.199111h84.110223z m-289.621334-85.333333l2.872889 0.256a14.108444 14.108444 0 0 1 11.576889 13.966222c0 6.314667-4.266667 12.629333-11.576889 13.966222l-2.844444 0.256h-45.141334l-2.417777-0.256c-6.314667-1.336889-12.032-7.651556-12.032-13.966222 0-6.314667 5.688889-12.629333 12.032-13.966222l2.417777-0.256h45.112889z" fill="#dbdbdb" p-id="2982"></path></svg>